<svg xmlns="http://www.w3.org/2000/svg" width="700" height="430" viewBox="0 0 700 430">
  <rect width="700" height="430" fill="#080818"/>

  <!-- Stars -->
  <g fill="white">
    <rect x="40" y="20" width="2" height="2" opacity="0.8"/>
    <rect x="120" y="50" width="2" height="2" opacity="0.6"/>
    <rect x="200" y="30" width="2" height="2" opacity="0.9"/>
    <rect x="300" y="15" width="2" height="2" opacity="0.7"/>
    <rect x="380" y="45" width="2" height="2" opacity="0.8"/>
    <rect x="460" y="25" width="2" height="2" opacity="0.5"/>
    <rect x="560" y="60" width="2" height="2" opacity="0.9"/>
    <rect x="640" y="35" width="2" height="2" opacity="0.7"/>
    <rect x="80" y="100" width="2" height="2" opacity="0.6"/>
    <rect x="160" y="80" width="2" height="2" opacity="0.8"/>
    <rect x="240" y="110" width="2" height="2" opacity="0.5"/>
    <rect x="340" y="95" width="2" height="2" opacity="0.9"/>
    <rect x="420" y="75" width="2" height="2" opacity="0.7"/>
    <rect x="500" y="105" width="2" height="2" opacity="0.6"/>
    <rect x="580" y="90" width="2" height="2" opacity="0.8"/>
    <rect x="660" y="115" width="2" height="2" opacity="0.5"/>
    <rect x="60" y="160" width="2" height="2" opacity="0.7"/>
    <rect x="140" y="140" width="2" height="2" opacity="0.9"/>
    <rect x="220" y="170" width="2" height="2" opacity="0.6"/>
    <rect x="320" y="155" width="2" height="2" opacity="0.8"/>
    <rect x="400" y="135" width="2" height="2" opacity="0.5"/>
    <rect x="480" y="165" width="2" height="2" opacity="0.7"/>
    <rect x="600" y="150" width="2" height="2" opacity="0.9"/>
    <rect x="30" y="240" width="2" height="2" opacity="0.6"/>
    <rect x="180" y="220" width="2" height="2" opacity="0.8"/>
    <rect x="260" y="250" width="2" height="2" opacity="0.7"/>
    <rect x="360" y="235" width="2" height="2" opacity="0.5"/>
    <rect x="440" y="215" width="2" height="2" opacity="0.9"/>
    <rect x="520" y="245" width="2" height="2" opacity="0.6"/>
    <rect x="620" y="230" width="2" height="2" opacity="0.8"/>
    <rect x="100" y="320" width="2" height="2" opacity="0.7"/>
    <rect x="280" y="300" width="2" height="2" opacity="0.9"/>
    <rect x="380" y="330" width="2" height="2" opacity="0.5"/>
    <rect x="540" y="310" width="2" height="2" opacity="0.8"/>
    <rect x="660" y="340" width="2" height="2" opacity="0.6"/>
    <rect x="50" y="390" width="2" height="2" opacity="0.7"/>
    <rect x="200" y="370" width="2" height="2" opacity="0.9"/>
    <rect x="350" y="400" width="2" height="2" opacity="0.5"/>
    <rect x="500" y="380" width="2" height="2" opacity="0.8"/>
    <rect x="650" y="410" width="2" height="2" opacity="0.6"/>
    <rect x="10" y="70" width="2" height="2" opacity="0.7"/>
    <rect x="690" y="190" width="2" height="2" opacity="0.8"/>
    <rect x="5" y="290" width="2" height="2" opacity="0.6"/>
    <rect x="695" y="360" width="2" height="2" opacity="0.9"/>
    <rect x="695" y="80" width="2" height="2" opacity="0.7"/>
    <rect x="10" y="420" width="2" height="2" opacity="0.5"/>
    <rect x="150" y="270" width="2" height="2" opacity="0.8"/>
    <rect x="600" y="270" width="2" height="2" opacity="0.7"/>
  </g>

  <!-- Gold star accents -->
  <text x="62" y="210" font-family="monospace" font-size="22" fill="#ffd700" opacity="0.85">★</text>
  <text x="604" y="210" font-family="monospace" font-size="22" fill="#ffd700" opacity="0.85">★</text>
  <text x="326" y="60" font-family="monospace" font-size="22" fill="#ffd700" opacity="0.85">★</text>
  <text x="326" y="410" font-family="monospace" font-size="22" fill="#ffd700" opacity="0.85">★</text>

  <!-- Center content -->
  <text x="350" y="195" text-anchor="middle" font-family="monospace" font-size="38" font-weight="bold" letter-spacing="6" fill="#00ff88">ANIME</text>
  <text x="350" y="228" text-anchor="middle" font-family="monospace" font-size="16" letter-spacing="4" fill="#00cc66">HALL OF FAME</text>
  <text x="350" y="252" text-anchor="middle" font-family="monospace" font-size="12" letter-spacing="2" fill="#009944" opacity="0.8">RATED 8/10 AND ABOVE</text>

  <!-- Scanline overlay -->
  <defs>
    <pattern id="scan" patternUnits="userSpaceOnUse" width="4" height="4">
      <rect width="4" height="2" fill="black"/>
    </pattern>
  </defs>
  <rect width="700" height="430" fill="url(#scan)" opacity="0.06"/>
</svg>
